<svg  height="17" viewBox="126.44 2.281 669.32 589" xmlns="http://www.w3.org/2000/svg">
 <path d="m737.82 125.11c-20.357 9.0331-42.221 15.14-65.21 17.885 23.462-14.049 41.436-36.313 49.922-62.809a226.82 226.82 0 0 1-72.113 27.552c-20.7-22.064-50.217-35.838-82.872-35.838-62.681 0-113.52 50.814-113.52 113.53 0 8.8865 1.0009 17.556 2.925 25.88-94.359-4.7422-178.01-49.941-234.01-118.63-9.7775 16.774-15.375 36.275-15.375 57.084 0 39.384 20.046 74.133 50.505 94.487a113.01 113.01 0 0 1-51.433-14.194v1.4347c0 55.013 39.129 100.88 91.07 111.32-9.5416 2.6144-19.555 3.9802-29.915 3.9802-7.3243 0-14.43-0.69317-21.372-1.9989 14.447 45.09 56.377 77.913 106.04 78.84-38.857 30.459-87.817 48.616-141 48.616-9.1591 0-18.211-0.54662-27.097-1.6179 50.252 32.223 109.92 51.032 174.04 51.032 208.82 0 323.03-173 323.03-323.03 0-4.9254-0.1084-9.8142-0.34585-14.686a231.32 231.32 0 0 0 56.724-58.85z" fill="#fff" style="stroke-width:1.4654"/>
</svg>
