<svg width="21"  viewBox="0 0 100 100" xmlns="http://www.w3.org/2000/svg">
 <path d="m90.807 37.09c-0.32647-2.1221-2.6934-3.2647-4.3257-4.3257-2.9382-1.9588-5.7948-3.836-8.7331-5.7948-6.9375-4.6522-13.957-9.3044-20.894-13.957-1.6324-1.061-3.2647-2.2037-4.8971-3.2647-1.1426-0.81618-2.6934-0.81618-3.9176 0-4.6522 3.1015-9.386 6.2845-14.038 9.386l-20.568 13.712c-1.7956 1.1426-4.1625 2.2853-4.2441 4.7338-0.081617 2.6934 0 5.4684 0 8.1618v13.059c0 2.3669-0.48971 5.1419 1.714 6.611 5.2235 3.5912 10.529 7.0191 15.834 10.529 6.5294 4.3257 13.059 8.7331 19.588 13.059 1.7956 1.2243 3.5912 2.5301 5.7948 1.061 1.8772-1.2243 3.6728-2.4485 5.55-3.6728 7.264-4.8154 14.528-9.7125 21.792-14.528l8.0801-5.3868c0.4897-0.32647 1.061-0.65294 1.5507-1.061 1.1426-0.81618 1.6324-1.9588 1.6324-3.3463v-22.445c0.08162-0.89779 0.16324-1.714 0.08162-2.5301v0zm-37.299-17.874 27.505 18.364-12.243 8.2434-15.262-10.202zm-7.0191 0v16.324l-15.181 10.202-12.324-8.1618zm-30.28 24.893 8.7331 5.8765-8.7331 5.8765zm30.28 36.646-27.505-18.364 12.243-8.2434 15.181 10.202v16.405zm3.5096-22.445-12.406-8.325 12.406-8.325 12.406 8.325zm3.5096 22.445v-16.324l15.181-10.202 12.243 8.2434zm30.28-24.893-8.7331-5.8765 8.8147-5.8765z" style="fill:#ffffff"/>
</svg>
