<svg height="21" viewBox="0 0 18 21.6" xmlns="http://www.w3.org/2000/svg">
 <title>Github</title>
 <path d="m8.9998 1.8659c-5.0615 0-9.1608 4.1018-9.1608 9.1608 0 4.0484 2.6247 7.4815 6.2639 8.6915 0.45805 0.08626 0.62601-0.19696 0.62601-0.44049 0-0.21757-0.00763-0.79395-0.011451-1.5574-2.5483 0.55271-3.0858-1.2291-3.0858-1.2291-0.41683-1.0574-1.0191-1.3398-1.0191-1.3398-0.82983-0.56798 0.064127-0.55653 0.064127-0.55653 0.91991 0.06413 1.4031 0.94362 1.4031 0.94362 0.81686 1.4008 2.1445 0.99625 2.6682 0.7619 0.08245-0.59242 0.31835-0.99625 0.5802-1.2253-2.0345-0.22903-4.1729-1.0169-4.1729-4.5271 0-1.0001 0.35499-1.8169 0.9428-2.4582-0.10306-0.23132-0.41224-1.1627 0.08016-2.4246 0 0 0.76724-0.24582 2.5193 0.93897 0.73288-0.20384 1.5116-0.3046 2.2903-0.30918 0.77869 0.00459 1.5574 0.10535 2.2903 0.30918 1.7406-1.1849 2.5078-0.93897 2.5078-0.93897 0.49241 1.2619 0.18322 2.1933 0.09161 2.4246 0.58401 0.64127 0.93897 1.4581 0.93897 2.4582 0 3.5194-2.1414 4.2943-4.1797 4.5195 0.32064 0.27483 0.61837 0.83671 0.61837 1.6948 0 1.2261-0.01146 2.2108-0.01146 2.5086 0 0.24048 0.16032 0.52676 0.62982 0.43515 3.6652-1.2016 6.2875-4.637 6.2875-8.6793 2e-6 -5.0592-4.1018-9.1608-9.1608-9.1608" style="fill:#ffffff"/>
</svg>
